<svg version="1.1" id="Ebene_1" xmlns="http://www.w3.org/2000/svg" x="0" y="0" viewBox="0 0 800 267.5" xml:space="preserve"><style>.st0{fill:#1d1d1b}</style><path class="st0" d="M549.3 175.3c1.9 1.1 5.1 2.2 8.1 2.2 7.5 0 12.9-4.4 12.9-12.3V82h4.7v82.2c0 10.9-6.7 17.4-17.6 17.4-3.7 0-7-1-9.8-2.5l1.7-3.8zM628.1 80.6l42 99.8h-4.8l-11.5-27.2h-51.7l-11.4 27.2H586l42.1-99.8zM603.9 149H652l-24.1-57.4-24 57.4zM681.3 82h4.7v48.4L732.2 82h5.6L690 132.1l51.6 48.4h-6.7l-49-46v46h-4.7V82zM752.5 82H800v4.2h-42.8v40.2h35.4v4.2h-35.4v45.5H800v4.2h-47.5V82z"/><g><path class="st0" d="M380.6 146.5c3.4 7.1 9.6 11.1 17 11.1 6.4 0 12-3.4 12-10.5 0-8.3-7.9-10-15.6-10h-5.7v-17.6h5.5c7 0 14.1-2.5 14.1-10.1 0-6.2-4.8-8.9-10.3-8.9-6.6 0-11.5 4.7-14.2 11.4l-22.6-7.4C366.1 87 381.3 78 399 78c18.9.1 36.5 8.8 36.5 28.3 0 9.8-4.2 16.5-10.9 21.2 7.7 4.1 12.7 10.9 12.7 21.6 0 21.6-19.3 31.2-39 31.2-17.9 0-32.8-7.4-38.4-23.5l20.7-10.3zM447 79.8h35.6c39.1 0 54.4 22 54.4 49.5 0 26.5-15.3 49-53.3 49H447V79.8zm27 24.3v49.8h8.2c18.5 0 27.2-9.6 27.2-24.6 0-15.5-9.2-25.2-26.7-25.2H474z"/></g><g><linearGradient id="SVGID_1_" gradientUnits="userSpaceOnUse" x1="58.184" y1="58.056" x2="110.399" y2="58.056"><stop offset="0" stop-color="#06a4ac"/><stop offset="1" stop-color="#098e8e"/></linearGradient><path fill="url(#SVGID_1_)" d="M58.2 33l48 83.1 4.2-4.2L81.5 1.1 77.2 0z"/><linearGradient id="SVGID_2_" gradientUnits="userSpaceOnUse" x1="105.182" y1="58.056" x2="250.541" y2="58.056"><stop offset="0" stop-color="#098e8e"/><stop offset=".548" stop-color="#06a4ac"/></linearGradient><path fill="url(#SVGID_2_)" d="M231.6 0l-9.2 2.3L105.2 112l1 4.1 144.3-83.3z"/><linearGradient id="SVGID_3_" gradientUnits="userSpaceOnUse" x1="172.052" y1="155.993" x2="308.852" y2="155.993"><stop offset="0" stop-color="#03424c"/><stop offset="1" stop-color="#066777"/></linearGradient><path fill="url(#SVGID_3_)" d="M172.1 85.5l82.3 142.6 54.5-94.3-3.8-5.9-122.3-44z"/><linearGradient id="SVGID_4_" gradientUnits="userSpaceOnUse" x1="0" y1="113.424" x2="136.797" y2="113.424"><stop offset="0" stop-color="#c1d241"/><stop offset="1" stop-color="#dcff15"/></linearGradient><path fill="url(#SVGID_4_)" d="M54.5 39.4L0 133.8l5.9 9 120.8 44.7 10.1-5.5z"/><linearGradient id="SVGID_5_" gradientUnits="userSpaceOnUse" x1="0" y1="181.468" x2="136.797" y2="181.468"><stop offset="0" stop-color="#8caa00"/><stop offset="1" stop-color="#dcff15"/></linearGradient><path fill="url(#SVGID_5_)" d="M0 133.8l55.1 95.4 81.7-47.2z"/><linearGradient id="SVGID_6_" gradientUnits="userSpaceOnUse" x1="200.249" y1="209.424" x2="250.7" y2="209.424"><stop offset="0" stop-color="#009ba6"/><stop offset="1" stop-color="#3fbcdb"/></linearGradient><path fill="url(#SVGID_6_)" d="M202.7 151.4l-2.5 5.3 20.5 110 10.9.8 19.1-33z"/><linearGradient id="SVGID_7_" gradientUnits="userSpaceOnUse" x1="77.206" y1="209.424" x2="231.646" y2="209.424"><stop offset="0" stop-color="#009ba6"/><stop offset="1" stop-color="#3fbcdb"/></linearGradient><path fill="url(#SVGID_7_)" d="M77.2 267.5h154.4l-1.4-5.9-27.5-110.2-10.2 6.1L80 257.6z"/><linearGradient id="SVGID_8_" gradientUnits="userSpaceOnUse" x1="77.206" y1="58.056" x2="231.646" y2="58.056"><stop offset="0" stop-color="#06a4ac"/><stop offset="1" stop-color="#098e8e"/></linearGradient><path fill="url(#SVGID_8_)" d="M77.2 0l.4 1.5 28.6 114.6L231.6 0z"/><linearGradient id="SVGID_9_" gradientUnits="userSpaceOnUse" x1="172.052" y1="86.043" x2="308.852" y2="86.043"><stop offset="0" stop-color="#066777"/><stop offset="1" stop-color="#03424c"/></linearGradient><path fill="url(#SVGID_9_)" d="M253.7 38.3l-81.6 47.2 136.8 48.3z"/><linearGradient id="SVGID_10_" gradientUnits="userSpaceOnUse" x1="58.312" y1="209.424" x2="202.667" y2="209.424"><stop offset="0" stop-color="#009ba6"/><stop offset="1" stop-color="#045567"/></linearGradient><path fill="url(#SVGID_10_)" d="M58.3 234.7l18.9 32.8 125.5-116.1z"/></g></svg>