<svg width="36" height="33" viewBox="0 0 36 33" fill="none" xmlns="http://www.w3.org/2000/svg">
<g id="grade">
<path id="grade_2" d="M11.7 26.65L18 22.85L24.3 26.7L22.65 19.5L28.2 14.7L20.9 14.05L18 7.24999L15.1 14L7.80003 14.65L13.35 19.5L11.7 26.65ZM18 27.55L9.70003 32.55C9.33336 32.7833 8.95003 32.8833 8.55003 32.85C8.15003 32.8167 7.80003 32.6833 7.50003 32.45C7.20003 32.2167 6.9667 31.925 6.80003 31.575C6.63336 31.225 6.60003 30.8333 6.70003 30.4L8.90003 20.95L1.55003 14.6C1.2167 14.3 1.00836 13.9583 0.92503 13.575C0.841697 13.1917 0.866697 12.8167 1.00003 12.45C1.13336 12.0833 1.33336 11.7833 1.60003 11.55C1.8667 11.3167 2.23336 11.1667 2.70003 11.1L12.4 10.25L16.15 1.34999C16.3167 0.949994 16.575 0.649994 16.925 0.449994C17.275 0.249994 17.6334 0.149994 18 0.149994C18.3667 0.149994 18.725 0.249994 19.075 0.449994C19.425 0.649994 19.6834 0.949994 19.85 1.34999L23.6 10.25L33.3 11.1C33.7667 11.1667 34.1334 11.3167 34.4 11.55C34.6667 11.7833 34.8667 12.0833 35 12.45C35.1334 12.8167 35.1584 13.1917 35.075 13.575C34.9917 13.9583 34.7834 14.3 34.45 14.6L27.1 20.95L29.3 30.4C29.4 30.8333 29.3667 31.225 29.2 31.575C29.0334 31.925 28.8 32.2167 28.5 32.45C28.2 32.6833 27.85 32.8167 27.45 32.85C27.05 32.8833 26.6667 32.7833 26.3 32.55L18 27.55Z" fill="#FFA505"/>
</g>
</svg>
